# xmcd
#
# Track frame offsets: 
#        150
#        11875
#        23290
#        34340
#        47110
#        59160
#        70657
#        84687
#        94242
#        104817
#        114162
#        124905
#        136192
#        147210
#        157377
#        165480
#        181797
#
# Disc length: 2583 seconds
#
# Revision: 2
# Processed by: cddbd v1.5.2PL0 Copyright (c) Steve Scherf et al.
# Submitted via: ExactAudioCopy v0.95b2
#
DISCID=ee0a1511
DTITLE=Bob Wills - Encore Disc 2
DYEAR=1900
DGENRE=
TTITLE0=She's Killin' Me
TTITLE1=I'm Crying My Heart Out
TTITLE2=Oklahoma Gals
TTITLE3=Tomorrow I'll Cry
TTITLE4=Siesta
TTITLE5=Deep Water
TTITLE6=Mississippi River Blues
TTITLE7=Bubbles In My Beer
TTITLE8=Blue For Dixie
TTITLE9=Roly Poly
TTITLE10=Maiden's Prayer
TTITLE11=Boot Hill Drag
TTITLE12=Yearning (Just For You)
TTITLE13=Rosetta
TTITLE14=South
TTITLE15=Sitting On Top Of The World
TTITLE16=Don't Let The Deal Go Down
EXTD=
EXTT0=
EXTT1=
EXTT2=
EXTT3=
EXTT4=
EXTT5=
EXTT6=
EXTT7=
EXTT8=
EXTT9=
EXTT10=
EXTT11=
EXTT12=
EXTT13=
EXTT14=
EXTT15=
EXTT16=
PLAYORDER=
